<?xml version="1.0" encoding="UTF-8" standalone="no"?>
<!-- Generator: Adobe Illustrator 27.0.1, SVG Export Plug-In . SVG Version: 6.00 Build 0)  -->

<svg
   version="1.1"
   id="Ebene_1"
   x="0px"
   y="0px"
   viewBox="0 0 1400.063 297.286"
   xml:space="preserve"
   sodipodi:docname="madeca.svg"
   width="1224.324"
   height="259.97"
   inkscape:version="1.2.2 (b0a8486541, 2022-12-01)"
   xmlns:inkscape="http://www.inkscape.org/namespaces/inkscape"
   xmlns:sodipodi="http://sodipodi.sourceforge.net/DTD/sodipodi-0.dtd"
   xmlns="http://www.w3.org/2000/svg"
   xmlns:svg="http://www.w3.org/2000/svg"><defs
   id="defs39" /><sodipodi:namedview
   id="namedview37"
   pagecolor="#ffffff"
   bordercolor="#999999"
   borderopacity="1"
   inkscape:showpageshadow="0"
   inkscape:pageopacity="0"
   inkscape:pagecheckerboard="true"
   inkscape:deskcolor="#d1d1d1"
   showgrid="false"
   inkscape:zoom="0.23046875"
   inkscape:cx="611.79661"
   inkscape:cy="472.94915"
   inkscape:window-width="1920"
   inkscape:window-height="1139"
   inkscape:window-x="1"
   inkscape:window-y="32"
   inkscape:window-maximized="1"
   inkscape:current-layer="Ebene_1" />
<style
   type="text/css"
   id="style2">
	.st0{fill:#2B558C;}
	.st1{fill:#50BF80;}
	.st2{fill:none;stroke:#2B558C;stroke-width:8;stroke-miterlimit:10;}
</style>
<g
   id="g34"
   transform="matrix(1.7855096,0,0,1.7855096,-435.03355,-761.33622)">
	<g
   id="g16">
		<path
   class="st0"
   d="m 578.2,556.3 c -5.3,0 -7.8,-2.7 -7.8,-9.5 0,-13.9 -2.1,-49.4 -4.8,-65.3 -2.1,3.8 -4.4,10 -7.8,19.7 L 544,541 c -1.8,5.3 -4.4,11.6 -6.4,15.4 h -2.7 c -3.5,0 -7.8,-2.7 -14.6,-23.3 l -11.1,-33.5 c -2,-6.1 -5.1,-13.3 -7.6,-17.9 -3.6,24.4 -5.3,55.8 -5.6,74.7 h -3.5 c -4.3,0 -8.2,-3.3 -8.2,-9.5 0,-24.5 4.8,-60.2 8.2,-79.1 h 4.4 c 11.5,0 16.4,10.3 19.7,19.8 l 11.7,34.8 c 2,5.9 4.3,13.2 5.2,17.7 1.4,-5.2 3.6,-12 5.9,-18 l 11.5,-31.9 c 3.5,-9.8 8.9,-19.3 11.3,-22.4 h 3.1 c 8,0 11.3,5.9 12.5,16.8 2.5,22.4 4.3,51.1 4.8,71.8 h -4.4 z"
   id="path4" />
		<path
   class="st0"
   d="m 663.9,556.3 c -5.1,0 -7.4,-2.2 -8.2,-6.3 -1.2,-6.1 -3.1,-12.9 -4.2,-17.2 h -41.4 c -1.7,6.5 -4,16.2 -5.3,23.5 h -4.6 c -3.8,0 -5.3,-1.7 -5.3,-5.7 0,-12.3 17.6,-66.2 31.3,-82.9 h 3.9 c 5,0 8.2,3.3 12,9.9 7.8,13.7 21.8,50.1 26.2,78.7 z m -33.2,-77.9 c -8.3,14.9 -13.3,28.5 -17.9,45 h 35.7 c -4.6,-16.7 -10.1,-31.1 -17.8,-45 z"
   id="path6" />
		<path
   class="st0"
   d="m 710.6,557 h -8 c -15,0 -22.7,-7.6 -22.7,-18.9 v -68.4 c 5,-1.3 14.1,-2.6 19.8,-2.6 h 11.1 c 21.4,0 39.5,17.3 39.5,44.1 0,27.4 -16.5,45.8 -39.7,45.8 z M 708,477.7 h -5.1 c -2.9,0 -7.7,0.5 -10.9,1.2 v 55.9 c 0,8.1 4.3,11.5 12.5,11.5 h 4.8 c 18.4,0 29.1,-13.6 29.1,-33.4 0,-23.8 -11.6,-35.2 -30.4,-35.2 z"
   id="path8" />
		<path
   class="st0"
   d="M 809.1,557 H 798.2 C 776,557 766,544.2 766,520.1 v -16 c 0,-7.6 1.4,-17.6 3,-24 2.1,-8.6 5.3,-12.4 11.2,-12.4 h 46.3 v 4.8 c 0,3.1 -2,6.1 -8.6,6.1 h -36.8 c -1.8,7.2 -3.1,17.7 -3.1,27 h 38.5 v 3.8 c 0,3.5 -2.3,6.4 -7.7,6.4 H 778 v 6.5 c 0,17.9 6.6,23.9 24.2,23.9 h 6.8 c 6.6,0 12.5,-1.3 16.7,-2.5 v 3.4 c 0,6.1 -2.1,9.9 -16.6,9.9 z"
   id="path10" />
		<path
   class="st0"
   d="m 900.8,487.4 c -5,-7.4 -13.8,-9.9 -21.8,-9.9 -19.2,0 -31.9,13.4 -31.9,32.3 0,24.4 14.2,36.8 32.5,36.8 9.4,0 16.4,-3.3 21.2,-8.7 h 0.7 v 3.7 c 0,8.5 -8.7,16.2 -24.2,16.2 -23.2,0 -42.1,-18.6 -42.1,-45.9 0,-23.3 15.9,-45.4 43.8,-45.4 14.6,0 22.8,9 22.8,16.4 v 4.6 h -1 z"
   id="path12" />
		<path
   class="st0"
   d="m 976.5,556.3 c -5.1,0 -7.4,-2.2 -8.2,-6.3 -1.2,-6.1 -3.1,-12.9 -4.2,-17.2 h -41.4 c -1.7,6.5 -4,16.2 -5.3,23.5 h -4.6 c -3.8,0 -5.3,-1.7 -5.3,-5.7 0,-12.3 17.6,-66.2 31.3,-82.9 h 3.9 c 5,0 8.2,3.3 12,9.9 7.8,13.7 21.8,50.1 26.2,78.7 z m -33.2,-77.9 c -8.3,14.9 -13.3,28.5 -17.9,45 h 35.7 c -4.7,-16.7 -10.2,-31.1 -17.8,-45 z"
   id="path14" />
	</g>
	<g
   id="g32">
		<g
   id="g28">
			<g
   id="g26">
				<g
   id="g24">
					<path
   class="st1"
   d="m 372.4,537.2 c -0.2,-2.3 -0.6,-4.6 -0.2,-6.8 1,-6.8 5.3,-12.9 10.5,-17.2 3.2,-2.5 6.5,-4.7 9.7,-7.3 6.4,-5 13.8,-15.7 7.1,-23.1 -2.2,-2.3 -5.2,-2.5 -8,-1.9 -4.3,0.8 -6.7,3.7 -7.8,7.9 -1.2,7.1 -2.1,10.1 -6.8,15.8 -2.4,2.8 -4.5,5.9 -6.4,9 -0.8,1.4 -2.8,1.3 -3.5,0 -1.3,-2.3 -1.9,-4.8 -2,-7.3 -0.3,-8.7 5.1,-17.6 11.9,-22.8 1.9,-1.4 3.9,-2.5 6.1,-3.5 6,-2.8 13,-9.1 8.5,-16 -9.9,-10.9 -23.4,4.4 -27.5,13.7 -0.4,0.8 -0.7,0.7 -1,0 -0.9,-1.4 -2,-2.5 -3.5,-3.1 -12.5,-4 -13.8,9.6 -11,18.6 0.7,2.9 1.9,5.7 3.2,8.4 0.9,1.8 1.4,3.7 2.5,5.3 1.2,1.8 2.1,3.6 3.1,5.5 2.4,4.4 5.5,8.5 7.8,13 1.2,2.9 2.1,5.8 2.8,8.8 0.2,0.8 0.6,1.5 0.5,2.5 -4.3,-6.9 -9.3,-9.9 -15.8,-14.2 -7.1,-4.9 -12.6,-12.2 -13.3,-21 -0.3,-2.9 -1.9,-4.9 -4.6,-5.8 -6.6,-2.2 -11.3,5.3 -9.9,11.2 1.6,9.8 9.3,17.8 18.2,21.9 3.6,1.7 7.5,2.7 11.1,4.2 5.3,2.2 9.7,6 12.8,10.7 0.4,-0.9 0.9,-0.4 1.5,-0.1 0.5,0.3 1.1,0.6 0.9,-0.6 0.4,0.2 1.1,1.2 1,-0.2 0,-0.3 2.1,-1.2 2.3,-1 1.1,0.9 3.1,0.4 3.6,2.1 2,-2.4 3.7,-5 6.2,-6.9 3.5,-2.7 7.4,-4.8 11.3,-7 4,-2.1 7.6,-4.7 11.2,-7.5 2.7,-2.2 5.3,-4.3 6.7,-7.6 3.2,-8.7 -7.4,-14.7 -13,-7 -1.4,1.9 -2.2,4 -3.3,6 -2.6,5.2 -6.7,9.6 -11.5,12.8 -2.8,1.9 -5.1,4.1 -7.2,6.8 -4.3,6.9 -4.2,3.7 -4.2,3.7 z"
   id="path18" />
					<path
   class="st0"
   d="m 374.3,551.8 c 5.4,-5.9 12,-11.4 20.2,-12.4 1.6,-0.3 3.2,0.3 4.6,1.1 0.9,0.5 1.5,2.5 1.2,3.5 -1.6,6 -8.4,6 -13.5,6.4 -8,0.9 -11.8,6.2 -14.7,13.2 -0.4,0.7 -6.8,0 -6.8,0"
   id="path20" />
					<path
   class="st0"
   d="m 365.3,563.6 c 0.1,-0.1 0,-0.4 -0.1,-0.6 -2.1,-4.1 -4.7,-7.8 -8.8,-10.1 -3.5,-1.9 -7.2,-2.8 -11.2,-2.4 -4.5,0.5 -12.4,0.3 -12.6,-5.8 0,-7.4 10.8,-6.9 15.7,-5.1 5.2,1.6 9.5,5.4 13.1,9.3 2,2.3 3.6,4.8 5.1,7.4 0.7,1.1 0.8,2.4 1.6,3.4 1.5,-3.4 1.3,-10.6 -1.7,-16 0.4,-0.9 0.9,-0.4 1.5,-0.1 0.5,0.3 1.1,0.6 0.9,-0.6 0.4,0.2 1.1,1.2 1,-0.2 0,-0.3 2.1,-1.2 2.3,-1 1.1,0.9 3.1,0.4 3.6,2.1 -1,2.5 -1.2,5.2 -1.5,7.9"
   id="path22" />
				</g>
			</g>
		</g>
		<circle
   class="st2"
   cx="368"
   cy="512"
   r="68.800003"
   id="circle30" />
	</g>
</g>
</svg>
