<svg width="52" height="52" viewBox="0 0 52 52" fill="none" xmlns="http://www.w3.org/2000/svg">
<path d="M13.0354 13.8602C14.5165 21.6504 13.6994 21.5748 6 21C6.68234 17.8659 5.70718 17.5356 5.50013 16.5C5.0003 14 3.60364 11.5671 7.00073 9.00004C9.81605 8.68104 12.6429 10.3529 13.0354 13.8602Z" fill="white"/>
<circle cx="7" cy="14" r="5" fill="white"/>
<path fill-rule="evenodd" clip-rule="evenodd" d="M4 25L20.0259 25.4327C20.2801 29.9944 22.3873 34.0615 25.6072 36.8937V45.2501L23.3194 45.2248C21.526 43.8834 18.4693 43 15 43C11.6894 43 8.75463 43.8044 6.93463 45.0435L3 45L4 25Z" fill="white"/>
<path fill-rule="evenodd" clip-rule="evenodd" d="M22.637 44.772L23.1127 34.1474C24.1977 35.6503 25.5296 36.9633 27.0488 38.0267L30.8363 51.3959H22.3403L22.3403 51.3956C23.9911 50.5039 25 49.3109 25 48C25 46.7696 24.1111 45.643 22.637 44.772Z" fill="white"/>
<path fill-rule="evenodd" clip-rule="evenodd" d="M51.3817 17.3647C48.7205 11.8246 43.0569 8.00002 36.5 8.00002C27.3873 8.00002 20 15.3873 20 24.5C20 30.0758 22.7657 35.0055 27 37.9924V48.1432C26.2689 47.8698 25.5556 47.5444 24.863 47.1704C24.3871 45.7455 22.706 44.5247 20.3615 43.7787C15.8738 39.2735 13 32.3489 13 24.5833C13 11.0063 21.7844 0 32.6206 0C41.4518 0 48.9203 7.3103 51.3817 17.3647Z" fill="white"/>
<path fill-rule="evenodd" clip-rule="evenodd" d="M7.41151 44.7436L4 24L0 51.3375H7.55385C5.96594 50.4524 5.00007 49.2826 5.00007 48C5.00007 46.7562 5.90841 45.6185 7.41151 44.7436Z" fill="white"/>
<path d="M13.9 25C13.9 27.7614 11.6614 30 8.89998 30C6.13856 30 3.89998 27.7614 3.89998 25C3.89998 22.2386 6.13856 20 8.89998 20C11.6614 20 13.9 22.2386 13.9 25Z" fill="white"/>
<circle cx="11" cy="24" r="5" fill="white"/>
</svg>
