<?xml version="1.0" encoding="UTF-8" standalone="no"?>
<svg
   width="736"
   height="719"
   xml:space="preserve"
   overflow="hidden"
   version="1.1"
   id="svg25"
   sodipodi:docname="straight-up.svg"
   inkscape:version="1.2.2 (b0a8486541, 2022-12-01)"
   xmlns:inkscape="http://www.inkscape.org/namespaces/inkscape"
   xmlns:sodipodi="http://sodipodi.sourceforge.net/DTD/sodipodi-0.dtd"
   xmlns="http://www.w3.org/2000/svg"
   xmlns:svg="http://www.w3.org/2000/svg"><sodipodi:namedview
     id="namedview27"
     pagecolor="#ffffff"
     bordercolor="#999999"
     borderopacity="1"
     inkscape:showpageshadow="0"
     inkscape:pageopacity="0"
     inkscape:pagecheckerboard="0"
     inkscape:deskcolor="#d1d1d1"
     showgrid="false"
     inkscape:zoom="1.3129346"
     inkscape:cx="492.02754"
     inkscape:cy="329.0339"
     inkscape:window-width="1920"
     inkscape:window-height="1139"
     inkscape:window-x="1"
     inkscape:window-y="32"
     inkscape:window-maximized="1"
     inkscape:current-layer="g23" /><defs
     id="defs5"><clipPath
       id="clip0"><rect
         x="1884"
         y="829"
         width="736"
         height="719"
         id="rect2" /></clipPath></defs><g
     clip-path="url(#clip0)"
     transform="translate(-1884 -829)"
     id="g23"><path
       d="M1885.2 1153.89C1872.24 1050.41 1967.39 924 2032.49 927.055 2097.59 930.109 2262.85 1068.73 2275.81 1172.22 2288.76 1275.7 2193.62 1544.15 2110.23 1547.96 2026.83 1551.78 1898.15 1257.38 1885.2 1153.89ZM1901.82 1153.89C1913.26 1243.42 2035.42 1504.19 2089.65 1510.68 2143.87 1517.18 2204.31 1407.15 2227.17 1247.82 2227.17 1086.19 2075.28 989.152 2021.06 973.497 1966.83 957.843 1890.39 1064.36 1901.82 1153.89Z"
       fill-rule="evenodd"
       id="path7"
       style="fill:#ffffff" /><path
       d="M1.19953 226.892C-11.7895 123.407 83.5987-3.00016 148.866 0.0544762 214.134 3.10911 379.816 141.734 392.805 245.219 405.794 348.704 310.406 617.145 226.801 620.963 143.196 624.781 14.1886 330.376 1.19953 226.892ZM17.8702 226.892C29.3312 316.423 151.809 577.193 206.171 583.684 260.534 590.175 321.122 480.152 344.044 320.818 344.044 159.193 191.768 62.1516 137.405 46.4971 83.0428 30.8425 6.40915 137.36 17.8702 226.892Z"
       fill-rule="evenodd"
       transform="matrix(-1 0 0 1 2620 927)"
       id="path9"
       style="fill:#ffffff" /><path
       d="M2132.12 838.362C2199.33 853.501 2251.03 990.068 2251.99 1154.95"
       stroke="#000000"
       stroke-width="13.75"
       stroke-miterlimit="8"
       fill="none"
       fill-rule="evenodd"
       id="path11"
       style="fill:#ffffff;stroke:#ffffff;stroke-opacity:1" /><path
       d="M2109.09 836.73C2118.62 825.386 2140 827.662 2156.85 841.813 2173.7 855.964 2179.64 876.632 2170.11 887.976 2160.58 899.319 2139.2 897.044 2122.35 882.893 2105.5 868.741 2099.56 848.074 2109.09 836.73Z"
       fill-rule="evenodd"
       id="path13"
       style="fill:#ffffff" /><path
       d="M2141 999.432C2210 1067.06 2300.94 1069.23 2360 997 2284.92 1124.34 2274.76 1295.73 2298.59 1446 2269.13 1345.28 2234.32 1347.68 2207.08 1446 2230.91 1305.32 2228.52 1118.03 2141 999.432Z"
       fill-rule="evenodd"
       id="path15"
       style="fill:#ffffff" /><path
       d="M144.632 1.35151C212.118 16.4355 264.052 153.014 265.012 317.932"
       stroke="#000000"
       stroke-width="13.75"
       stroke-miterlimit="8"
       fill="none"
       fill-rule="evenodd"
       id="path17"
       transform="matrix(-1 0 0 1 2517 837)"
       style="fill:#ffffff;stroke:#ffffff;stroke-opacity:1" /><path
       d="M2103.97 836.73C2113.5 825.386 2134.88 827.662 2151.73 841.813 2168.58 855.964 2174.52 876.632 2165 887.976 2155.47 899.319 2134.09 897.044 2117.24 882.893 2100.39 868.741 2094.45 848.074 2103.97 836.73Z"
       fill-rule="evenodd"
       id="path19"
       style="fill:#ffffff" /><path
       d="M0 26.8217C-5.07248e-15 12.0085 17.8381-3.41476e-15 39.8425-6.82952e-15 61.8469-1.3659e-14 79.685 12.0085 79.685 26.8217 79.685 41.6349 61.8469 53.6434 39.8425 53.6434 17.8381 53.6434-2.53624e-14 41.6349 0 26.8217Z"
       fill-rule="evenodd"
       transform="matrix(-0.765782 0.6431 0.6431 0.765782 2380.96 816.191)"
       id="path21"
       style="fill:#ffffff" /></g></svg>
