<?xml version="1.0" encoding="UTF-8" standalone="no"?>
<!DOCTYPE svg PUBLIC "-//W3C//DTD SVG 1.1//EN" "http://www.w3.org/Graphics/SVG/1.1/DTD/svg11.dtd">
<svg width="100%" height="100%" viewBox="0 0 2380 600" version="1.1" xmlns="http://www.w3.org/2000/svg" xmlns:xlink="http://www.w3.org/1999/xlink" xml:space="preserve" xmlns:serif="http://www.serif.com/" style="fill-rule:evenodd;clip-rule:evenodd;stroke-linejoin:round;stroke-miterlimit:2;">
    <g transform="matrix(1,0,0,1,0,-1124)">
        <g transform="matrix(2.32422,0,0,0.585938,-2496.21,1125)">
            <rect id="logo_font_final" x="1074" y="0" width="1024" height="1024" style="fill:none;"/>
            <g id="logo_font_final1" serif:id="logo_font_final">
                <g transform="matrix(1.00355,0,0,1.32691,-11.0468,-361.813)">
                    <g transform="matrix(0.958426,0,0,1.04934,-908.634,152.899)">
                        <g transform="matrix(0.447329,0,0,1.22572,2139.31,-1386.81)">
                            <path d="M1941.55,1557.91C1941.55,1522.57 1912.85,1493.88 1877.51,1493.88C1842.17,1493.88 1813.47,1522.57 1813.47,1557.91L1813.47,1659.4L1776.02,1659.4L1776.02,1557.91C1776.02,1501.9 1821.5,1456.43 1877.51,1456.43C1911.65,1456.43 1941.87,1473.32 1960.27,1499.2C1978.67,1473.32 2008.89,1456.43 2043.03,1456.43C2099.04,1456.43 2144.52,1501.9 2144.52,1557.91L2144.52,1659.4L2107.07,1659.4L2107.07,1557.91C2107.07,1522.57 2078.38,1493.88 2043.03,1493.88C2007.69,1493.88 1979,1522.57 1979,1557.91L1979,1659.4L1941.55,1659.4L1941.55,1557.91Z" style="fill:rgb(142,102,203);"/>
                        </g>
                        <g transform="matrix(-0.447329,-1.50107e-16,5.4782e-17,-1.22572,3077.66,2432.32)">
                            <path d="M1941.55,1557.91C1941.55,1522.57 1912.85,1493.88 1877.51,1493.88C1842.17,1493.88 1813.47,1522.57 1813.47,1557.91L1813.47,1566.69L1776.02,1566.69L1776.02,1557.91C1776.02,1501.9 1821.5,1456.43 1877.51,1456.43C1911.65,1456.43 1941.87,1473.32 1960.27,1499.2C1978.67,1473.32 2008.89,1456.43 2043.03,1456.43C2099.04,1456.43 2144.52,1501.9 2144.52,1557.91L2144.52,1566.69L2107.07,1566.69L2107.07,1557.91C2107.07,1522.57 2078.38,1493.88 2043.03,1493.88C2007.69,1493.88 1979,1522.57 1979,1557.91L1979,1566.69L1941.55,1566.69L1941.55,1557.91Z" style="fill:rgb(142,102,203);"/>
                        </g>
                        <g transform="matrix(0.447329,0,0,1.22572,2139.31,-1386.81)">
                            <path d="M1222.7,1557.91C1222.7,1593.26 1251.4,1621.95 1286.74,1621.95C1322.08,1621.95 1350.78,1593.26 1350.78,1557.91L1350.78,1456.43L1388.23,1456.43L1388.23,1557.91C1388.23,1613.93 1342.75,1659.4 1286.74,1659.4C1230.73,1659.4 1185.26,1613.93 1185.26,1557.91L1185.26,1456.43L1222.7,1456.43L1222.7,1557.91Z" style="fill:rgb(142,102,203);"/>
                        </g>
                        <g transform="matrix(0.447329,0,0,1.62113,2393.77,-2042.96)">
                            <rect x="862.565" y="1456.43" width="37.449" height="202.971" style="fill:rgb(142,102,203);"/>
                        </g>
                        <g transform="matrix(0.447329,0,0,1.22572,2290.99,-1386.81)">
                            <path d="M1222.7,1557.91C1222.7,1593.26 1251.4,1621.95 1286.74,1621.95C1322.08,1621.95 1350.78,1593.26 1350.78,1557.91L1350.78,1456.43L1388.23,1456.43L1388.23,1557.91C1388.23,1613.93 1342.75,1659.4 1286.74,1659.4C1230.73,1659.4 1185.26,1613.93 1185.26,1557.91L1185.26,1456.43L1222.7,1456.43L1222.7,1557.91Z" style="fill:rgb(142,102,203);"/>
                        </g>
                        <g id="C" transform="matrix(0.447329,0,0,1.22572,2139.31,-1386.81)">
                            <path d="M1146.99,1557.91C1146.99,1613.93 1101.52,1659.4 1045.51,1659.4C989.493,1659.4 944.019,1613.93 944.019,1557.91C944.019,1501.9 989.493,1456.43 1045.51,1456.43C1063.4,1456.43 1080.21,1461.07 1094.82,1469.21L1074.57,1505.63C1065.96,1500.83 1056.05,1498.09 1045.51,1498.09C1012.49,1498.09 985.681,1524.9 985.681,1557.91C985.681,1590.93 1012.49,1617.74 1045.51,1617.74C1078.52,1617.74 1105.33,1590.93 1105.33,1557.91L1146.99,1557.91Z" style="fill:rgb(142,102,203);"/>
                        </g>
                        <g id="I">
                            <g transform="matrix(0.447329,0,0,1.22572,2139.31,-1386.81)">
                                <rect x="862.565" y="1456.43" width="37.449" height="202.971" style="fill:rgb(142,102,203);"/>
                            </g>
                            <g transform="matrix(0.447329,0,0,0.230303,2139.31,-17.3171)">
                                <rect x="862.565" y="1456.43" width="37.449" height="202.971" style="fill:rgb(142,102,203);"/>
                            </g>
                        </g>
                        <g id="h" transform="matrix(0.447329,0,0,1.22572,2139.31,-1386.81)">
                            <path d="M666.893,1477.61C680.975,1467.82 698.079,1462.07 716.514,1462.07C764.568,1462.07 803.583,1501.09 803.583,1549.14L803.583,1659.4L766.134,1659.4L766.134,1549.14C766.134,1521.76 743.9,1499.52 716.514,1499.52C689.127,1499.52 666.893,1521.76 666.893,1549.14L666.893,1659.4L629.444,1659.4L629.444,1390.95L666.893,1390.95L666.893,1477.61Z" style="fill:rgb(142,102,203);"/>
                        </g>
                        <g id="e" transform="matrix(0.447329,0,0,1.22572,2137.52,-1386.81)">
                            <path d="M583.129,1543.96C583.758,1548.52 584.083,1553.18 584.083,1557.91C584.083,1613.93 538.609,1659.4 482.597,1659.4C459.109,1659.4 437.473,1651.4 420.267,1637.99C412.904,1632.24 406.351,1625.51 400.812,1617.98C393.426,1607.95 387.841,1596.51 384.538,1584.14C382.303,1575.77 381.112,1566.98 381.112,1557.91C381.112,1501.9 426.586,1456.43 482.597,1456.43C510.581,1456.43 535.934,1467.78 554.3,1486.12C563.171,1494.98 570.412,1505.48 575.533,1517.11L432.872,1599.47C439.194,1607.03 447.203,1613.12 456.317,1617.17C464.351,1620.75 473.244,1622.73 482.597,1622.73C516.049,1622.73 543.616,1597.33 547.052,1564.79L583.129,1543.96ZM520.725,1505.51C510.023,1497.71 496.844,1493.1 482.597,1493.1C446.825,1493.1 417.782,1522.14 417.782,1557.91C417.782,1560.22 417.902,1562.5 418.137,1564.74L520.725,1505.51Z" style="fill:rgb(142,102,203);"/>
                        </g>
                    </g>
                    <g transform="matrix(0.382726,0,0,1.2862,1079.58,-2559.95)">
                        <path d="M189.579,2416.46C190.807,2413.93 192.284,2410.76 193.391,2407.96C200.7,2389.44 207.61,2364.41 207.61,2364.41C209.772,2356.59 217.486,2351 226.502,2350.72C226.502,2350.72 318.657,2347.91 359.542,2350.76C361.823,2350.93 364.057,2351.43 366.148,2352.26C366.148,2352.26 416.854,2372.87 430.494,2416.64C474.314,2419.07 495.883,2431.05 507.22,2445.1C519.98,2460.91 522.72,2481.74 522.72,2502.95L482.357,2502.95C482.357,2495.04 481.12,2487.14 480.143,2479.75C479.49,2474.81 477.654,2470.1 474.47,2466.16C471.339,2462.28 466.233,2459.41 458.767,2457.15C447.941,2453.88 433.273,2452.22 413.485,2452.22C402.87,2452.22 394.07,2444.88 393.35,2435.43C391.139,2406.4 362.132,2390.78 352.711,2386.45C322.402,2384.71 268.832,2385.69 242.858,2386.33C238.374,2400.91 230.84,2423.79 224.419,2435.38C221.127,2441.32 217.409,2445.35 214.554,2447.44C209.593,2451.08 204.489,2452.22 200.013,2452.22C179.41,2452.22 166.933,2455.16 159.954,2461.86C155.547,2466.09 153.949,2471.56 153.021,2477.22C151.633,2485.66 151.99,2494.62 151.99,2502.95L109.931,2502.95C109.931,2480.2 112.429,2454.56 130.397,2437.32C141.537,2426.63 159.457,2418.05 189.579,2416.46Z" style="fill:rgb(142,102,203);"/>
                    </g>
                    <g transform="matrix(0.428732,0,0,1.2862,1060.06,-2558.14)">
                        <path d="M316.055,2429.53L316.055,2393.49C339.065,2393.49 353.705,2400.75 363.032,2411.32C372.22,2421.73 376.647,2436.31 376.647,2454.09L340.615,2454.09C340.615,2446.37 340.003,2439.68 336.017,2435.17C332.166,2430.8 325.554,2429.53 316.055,2429.53Z" style="fill:rgb(142,102,203);"/>
                    </g>
                </g>
            </g>
        </g>
    </g>
</svg>
